<svg version="1" xmlns="http://www.w3.org/2000/svg" width="682.667" height="682.667" viewBox="0 0 512.000000 512.000000"><path d="M231.5 1.1c-55.6 5.7-107.9 29-147.6 65.7C38.5 108.6 11.9 159 2.3 221c-2.1 14.2-2.5 52.8-.5 66.5C7.7 329 20.6 363.6 42.4 397c17.8 27.2 45.5 54.8 72.6 72.6 33.4 21.8 68.3 34.7 109.5 40.6 11.8 1.7 51.2 1.7 63 0 59.8-8.5 109.4-33.1 150.2-74.3 40.4-40.9 64.1-89.4 72.5-148.4 1.7-11.8 1.7-51.2 0-63-9.6-67.7-41-124.2-92.7-167.1C383.2 29 339.2 9.8 292 2.5 279.4.6 244.3-.3 231.5 1.1zM361 102v15h24.1c23 0 24.3.1 28 2.2 2.6 1.4 4.6 3.7 6.1 6.6 2.1 4.4 2.1 5.1 1.5 34.1-.9 43.1-3.6 65.9-9.3 79.7-2.5 6.2-11.5 19.1-20.4 29.3-17.3 20-30.2 28.7-54.5 36.6-18 5.9-29.2 7.8-43.2 7.2l-12.1-.5-3.5 7.7c-5.8 12.6-7 18.7-6.4 33.6.5 14.4 1.6 18.7 7.6 27.7l3.6 5.3 9.2.3 9.2.3.3 7.2.3 7.2 7.3.3 7.2.3V447H196v-44.9l7.3-.3 7.2-.3.3-7.2.3-7.2 9.2-.3 9.2-.3 3.6-5.3c5.7-8.6 7.1-13.3 7.6-26.7.5-11.6.4-12.3-2.6-20.5-1.7-4.7-4.8-11.4-6.9-15l-3.8-6.5-13.2-.7c-15.5-.7-25.8-2.6-40.2-7.4-24.9-8.3-46.7-24.7-61-45.9-10-14.8-14.3-26.8-17.9-49.5-2.9-18.3-3-19.9-3.8-50.6-.6-27.4-.6-28.2 1.5-32.6 1.5-2.9 3.5-5.2 6.1-6.6 3.7-2.1 5-2.2 28-2.2H151V87h210v15z"/><path d="M121.7 147.7c-.4.3-.7 9.9-.7 21.2 0 29.2 2.5 44.2 10 60.8 11.8 26.1 38 45.1 68.8 49.9l4.3.7-10.9-14.6c-18.2-24.2-29-43.3-35.5-62.8-3-8.9-7.1-27.9-6.6-30.6.1-.4.1-6.3 0-13.1L151 147h-14.3c-7.9 0-14.7.3-15 .7zM360.9 161.7c0 16.7-.4 21.1-2.6 30.3-4.7 19.7-21 46.5-48.5 79.9-3.8 4.6-6.7 8.5-6.4 8.8.8.8 15.9-1.9 24.6-4.4 22.3-6.4 40.9-22.3 52-44.3 8.4-16.7 11-32.1 10.7-63.4l-.2-21.1-14.7-.3-14.8-.3-.1 14.8z"/></svg>